<mxfile host="app.diagrams.net" modified="2021-11-29T21:01:22.189Z" agent="5.0 (X11; Linux x86_64) AppleWebKit/537.36 (KHTML, like Gecko) Chrome/95.0.4638.54 Safari/537.36" etag="a_ePcrMUDMRp2Wf9Ff2w" version="15.8.6" type="github">
  <diagram id="rb_kaPLU2Jm6gLeL3qcs" name="Page-1">
    <mxGraphModel dx="741" dy="335" grid="1" gridSize="10" guides="1" tooltips="1" connect="1" arrows="1" fold="1" page="1" pageScale="1" pageWidth="850" pageHeight="1100" math="0" shadow="0">
      <root>
        <mxCell id="0" />
        <mxCell id="1" parent="0" />
      </root>
    </mxGraphModel>
  </diagram>
</mxfile>
